<svg xmlns="http://www.w3.org/2000/svg" xmlns:v="https://vecta.io/nano">
  <defs>
    <g id="fr">
      <path d="M1.12862 26.1905L3.06456 11.0327L13.9368 8.05344L12.0008 23.2112L1.12862 26.1905Z" fill="#537DFD"/>
      <path d="M13.0961 23.0633L14.8708 7.90719L24.9044 4.93686L23.1297 20.0929L13.0961 23.0633Z" fill="white"/>
      <path d="M24.0634 19.9466L25.9994 4.78884L36.8716 1.8096L34.9356 16.9674L24.0634 19.9466Z" fill="#FD5391"/>
    </g>
    <g id="rp">
      <path d="M57.2504 15.3345L18.3097 26.2292L0 83L18.3097 78.7879L23.9411 62.0185L39.0344 58.3467L44.7594 74.0828L61.6223 69.362L55.1686 54.3707C67.1391 53.0174 69.0075 43.6596 69.0075 43.6596C69.0075 43.6596 72.3437 31.5952 73.9051 22.1535C75.4664 12.7118 57.2504 15.3345 57.2504 15.3345ZM56.2095 35.267C55.1686 41.5615 51.0049 42.6105 51.0049 42.6105L28.6252 47.8559L32.7889 34.7425L57.2504 29.4971L56.2095 35.267Z M136.849 1.95146C133.202 -1.17087 127.472 0.390291 127.472 0.390291L83.7122 10.2777L66 67L82.6859 63.0346L88.9216 46.7049L121.371 39.1592C121.371 39.1592 133.202 35.7767 136.328 24.8485C139.453 13.9204 139.974 11.3184 139.974 11.3184C139.974 11.3184 140.495 5.07379 136.849 1.95146ZM121.1 19.3793C120.059 25.6239 115.891 26.6647 115.891 26.6647L93.4903 31.8686L97.6579 18.8589L122.142 13.655L121.1 19.3793Z"/>
    </g>
    <g id="line-1">
      <path d="M0 78C2.33333 61.3333 7 26.8 7 22V67L196 0L0 78Z" />
    </g>
    <g id="line-right">
      <path d="M0 0L460 189L443.571 162.346L0 0Z"/>
    </g>
    <g id="line-left">
      <path d="M460 0L0 189L16.4286 162.346L460 0Z"/>
    </g>
    <g id="corner">
      <path d="M34.5 25.5H0.5L35.5 27L52.5 0.5L34.5 25.5Z"/>
    </g>
    <g id="corner-bottom-right">
      <use href="#corner"/>
    </g>
    <g id="corner-bottom-left">
      <g transform="translate(53, 0)">
        <use href="#corner" transform="scale(-1,1)"/>
      </g>
    </g>
    <g id="corner-top-right">
      <g transform="translate(53, 27)">
        <use href="#corner" transform="scale(-1,-1)"/>
      </g>
    </g>
    <g id="corner-top-left">
      <g transform="translate(0, 27)">
        <use href="#corner" transform="scale(1,-1)"/>
      </g>
    </g>
    <g id="blur">
      <g filter="url(#blurer)">
        <circle cx="233.5" cy="233.5" r="83.5" />
      </g>
    </g>
    <g id="triangle">
      <path fill="currentColor" d="M59 0L0 71H59V0Z M59 0L118 71H59V0Z"/>
    </g>
    <filter
      id="blurer"
      x="0"
      y="0"
      width="467"
      height="467"
      filterUnits="userSpaceOnUse"
      color-interpolation-filters="sRGB"
    >
      <feFlood flood-opacity="0" />
      <feBlend in="SourceGraphic" />
      <feGaussianBlur stdDeviation="75" />
    </filter>
  </defs> 
</svg>